<mxfile host="Electron" modified="2024-03-17T21:08:08.679Z" agent="Mozilla/5.0 (X11; Linux x86_64) AppleWebKit/537.36 (KHTML, like Gecko) draw.io/23.1.5 Chrome/120.0.6099.291 Electron/28.2.7 Safari/537.36" etag="DKLdiPt2DqxjQOmugl_i" version="23.1.5" type="device">
  <diagram name="PÃ¡gina-1" id="uwZHr8G1LPB-tQ-PlY2a">
    <mxGraphModel dx="1114" dy="653" grid="1" gridSize="10" guides="1" tooltips="1" connect="1" arrows="1" fold="1" page="1" pageScale="1" pageWidth="827" pageHeight="1169" math="0" shadow="0">
      <root>
        <mxCell id="0" />
        <mxCell id="1" parent="0" />
        <mxCell id="B8BXQAc4DHJJyGiQGTcE-5" value="EntidadConNombre" style="swimlane;fontStyle=1;align=center;verticalAlign=top;childLayout=stackLayout;horizontal=1;startSize=26;horizontalStack=0;resizeParent=1;resizeParentMax=0;resizeLast=0;collapsible=1;marginBottom=0;whiteSpace=wrap;html=1;" vertex="1" parent="1">
          <mxGeometry x="290" y="330" width="160" height="86" as="geometry" />
        </mxCell>
        <mxCell id="B8BXQAc4DHJJyGiQGTcE-6" value="# nombre : String" style="text;strokeColor=none;fillColor=none;align=left;verticalAlign=top;spacingLeft=4;spacingRight=4;overflow=hidden;rotatable=0;points=[[0,0.5],[1,0.5]];portConstraint=eastwest;whiteSpace=wrap;html=1;" vertex="1" parent="B8BXQAc4DHJJyGiQGTcE-5">
          <mxGeometry y="26" width="160" height="26" as="geometry" />
        </mxCell>
        <mxCell id="B8BXQAc4DHJJyGiQGTcE-7" value="" style="line;strokeWidth=1;fillColor=none;align=left;verticalAlign=middle;spacingTop=-1;spacingLeft=3;spacingRight=3;rotatable=0;labelPosition=right;points=[];portConstraint=eastwest;strokeColor=inherit;" vertex="1" parent="B8BXQAc4DHJJyGiQGTcE-5">
          <mxGeometry y="52" width="160" height="8" as="geometry" />
        </mxCell>
        <mxCell id="B8BXQAc4DHJJyGiQGTcE-8" value="# mostrarNombre() : void" style="text;strokeColor=none;fillColor=none;align=left;verticalAlign=top;spacingLeft=4;spacingRight=4;overflow=hidden;rotatable=0;points=[[0,0.5],[1,0.5]];portConstraint=eastwest;whiteSpace=wrap;html=1;" vertex="1" parent="B8BXQAc4DHJJyGiQGTcE-5">
          <mxGeometry y="60" width="160" height="26" as="geometry" />
        </mxCell>
        <mxCell id="B8BXQAc4DHJJyGiQGTcE-21" style="edgeStyle=orthogonalEdgeStyle;rounded=0;orthogonalLoop=1;jettySize=auto;html=1;endArrow=block;endFill=0;" edge="1" parent="1" source="B8BXQAc4DHJJyGiQGTcE-9" target="B8BXQAc4DHJJyGiQGTcE-5">
          <mxGeometry relative="1" as="geometry">
            <Array as="points">
              <mxPoint x="130" y="480" />
              <mxPoint x="370" y="480" />
            </Array>
          </mxGeometry>
        </mxCell>
        <mxCell id="B8BXQAc4DHJJyGiQGTcE-9" value="PoligonoIndustrial" style="swimlane;fontStyle=1;align=center;verticalAlign=top;childLayout=stackLayout;horizontal=1;startSize=26;horizontalStack=0;resizeParent=1;resizeParentMax=0;resizeLast=0;collapsible=1;marginBottom=0;whiteSpace=wrap;html=1;" vertex="1" parent="1">
          <mxGeometry x="50" y="550" width="160" height="78" as="geometry" />
        </mxCell>
        <mxCell id="B8BXQAc4DHJJyGiQGTcE-10" value="# ciudad : String&lt;br&gt;# edificios : Edificio[ ]" style="text;strokeColor=none;fillColor=none;align=left;verticalAlign=top;spacingLeft=4;spacingRight=4;overflow=hidden;rotatable=0;points=[[0,0.5],[1,0.5]];portConstraint=eastwest;whiteSpace=wrap;html=1;" vertex="1" parent="B8BXQAc4DHJJyGiQGTcE-9">
          <mxGeometry y="26" width="160" height="44" as="geometry" />
        </mxCell>
        <mxCell id="B8BXQAc4DHJJyGiQGTcE-11" value="" style="line;strokeWidth=1;fillColor=none;align=left;verticalAlign=middle;spacingTop=-1;spacingLeft=3;spacingRight=3;rotatable=0;labelPosition=right;points=[];portConstraint=eastwest;strokeColor=inherit;" vertex="1" parent="B8BXQAc4DHJJyGiQGTcE-9">
          <mxGeometry y="70" width="160" height="8" as="geometry" />
        </mxCell>
        <mxCell id="B8BXQAc4DHJJyGiQGTcE-22" style="edgeStyle=orthogonalEdgeStyle;rounded=0;orthogonalLoop=1;jettySize=auto;html=1;endArrow=block;endFill=0;" edge="1" parent="1" source="B8BXQAc4DHJJyGiQGTcE-13" target="B8BXQAc4DHJJyGiQGTcE-5">
          <mxGeometry relative="1" as="geometry" />
        </mxCell>
        <mxCell id="B8BXQAc4DHJJyGiQGTcE-24" style="edgeStyle=orthogonalEdgeStyle;rounded=0;orthogonalLoop=1;jettySize=auto;html=1;endArrow=diamondThin;endFill=1;startSize=9;endSize=15;" edge="1" parent="1" source="B8BXQAc4DHJJyGiQGTcE-17" target="B8BXQAc4DHJJyGiQGTcE-13">
          <mxGeometry relative="1" as="geometry">
            <Array as="points">
              <mxPoint x="615" y="720" />
              <mxPoint x="450" y="720" />
            </Array>
          </mxGeometry>
        </mxCell>
        <mxCell id="B8BXQAc4DHJJyGiQGTcE-28" style="edgeStyle=orthogonalEdgeStyle;rounded=0;orthogonalLoop=1;jettySize=auto;html=1;endArrow=diamondThin;endFill=1;endSize=13;" edge="1" parent="1" source="B8BXQAc4DHJJyGiQGTcE-13" target="B8BXQAc4DHJJyGiQGTcE-9">
          <mxGeometry relative="1" as="geometry">
            <Array as="points">
              <mxPoint x="290" y="720" />
              <mxPoint x="130" y="720" />
            </Array>
          </mxGeometry>
        </mxCell>
        <mxCell id="B8BXQAc4DHJJyGiQGTcE-13" value="Edificio" style="swimlane;fontStyle=1;align=center;verticalAlign=top;childLayout=stackLayout;horizontal=1;startSize=26;horizontalStack=0;resizeParent=1;resizeParentMax=0;resizeLast=0;collapsible=1;marginBottom=0;whiteSpace=wrap;html=1;" vertex="1" parent="1">
          <mxGeometry x="250" y="550" width="240" height="78" as="geometry" />
        </mxCell>
        <mxCell id="B8BXQAc4DHJJyGiQGTcE-14" value="# despachos : int&lt;br&gt;# departamentos : Departamento[ ]" style="text;strokeColor=none;fillColor=none;align=left;verticalAlign=top;spacingLeft=4;spacingRight=4;overflow=hidden;rotatable=0;points=[[0,0.5],[1,0.5]];portConstraint=eastwest;whiteSpace=wrap;html=1;" vertex="1" parent="B8BXQAc4DHJJyGiQGTcE-13">
          <mxGeometry y="26" width="240" height="44" as="geometry" />
        </mxCell>
        <mxCell id="B8BXQAc4DHJJyGiQGTcE-15" value="" style="line;strokeWidth=1;fillColor=none;align=left;verticalAlign=middle;spacingTop=-1;spacingLeft=3;spacingRight=3;rotatable=0;labelPosition=right;points=[];portConstraint=eastwest;strokeColor=inherit;" vertex="1" parent="B8BXQAc4DHJJyGiQGTcE-13">
          <mxGeometry y="70" width="240" height="8" as="geometry" />
        </mxCell>
        <mxCell id="B8BXQAc4DHJJyGiQGTcE-23" style="edgeStyle=orthogonalEdgeStyle;rounded=0;orthogonalLoop=1;jettySize=auto;html=1;endArrow=block;endFill=0;" edge="1" parent="1" source="B8BXQAc4DHJJyGiQGTcE-17" target="B8BXQAc4DHJJyGiQGTcE-5">
          <mxGeometry relative="1" as="geometry">
            <Array as="points">
              <mxPoint x="615" y="480" />
              <mxPoint x="370" y="480" />
            </Array>
          </mxGeometry>
        </mxCell>
        <mxCell id="B8BXQAc4DHJJyGiQGTcE-17" value="Departamento" style="swimlane;fontStyle=1;align=center;verticalAlign=top;childLayout=stackLayout;horizontal=1;startSize=26;horizontalStack=0;resizeParent=1;resizeParentMax=0;resizeLast=0;collapsible=1;marginBottom=0;whiteSpace=wrap;html=1;" vertex="1" parent="1">
          <mxGeometry x="520" y="550" width="190" height="68" as="geometry" />
        </mxCell>
        <mxCell id="B8BXQAc4DHJJyGiQGTcE-18" value="# numeroEmpleados : String" style="text;strokeColor=none;fillColor=none;align=left;verticalAlign=top;spacingLeft=4;spacingRight=4;overflow=hidden;rotatable=0;points=[[0,0.5],[1,0.5]];portConstraint=eastwest;whiteSpace=wrap;html=1;" vertex="1" parent="B8BXQAc4DHJJyGiQGTcE-17">
          <mxGeometry y="26" width="190" height="34" as="geometry" />
        </mxCell>
        <mxCell id="B8BXQAc4DHJJyGiQGTcE-19" value="" style="line;strokeWidth=1;fillColor=none;align=left;verticalAlign=middle;spacingTop=-1;spacingLeft=3;spacingRight=3;rotatable=0;labelPosition=right;points=[];portConstraint=eastwest;strokeColor=inherit;" vertex="1" parent="B8BXQAc4DHJJyGiQGTcE-17">
          <mxGeometry y="60" width="190" height="8" as="geometry" />
        </mxCell>
        <mxCell id="B8BXQAc4DHJJyGiQGTcE-25" value="contiene" style="text;html=1;align=center;verticalAlign=middle;resizable=0;points=[];autosize=1;strokeColor=none;fillColor=none;" vertex="1" parent="1">
          <mxGeometry x="500" y="688" width="70" height="30" as="geometry" />
        </mxCell>
        <mxCell id="B8BXQAc4DHJJyGiQGTcE-26" value="1..*" style="text;html=1;align=center;verticalAlign=middle;resizable=0;points=[];autosize=1;strokeColor=none;fillColor=none;" vertex="1" parent="1">
          <mxGeometry x="410" y="628" width="40" height="30" as="geometry" />
        </mxCell>
        <mxCell id="B8BXQAc4DHJJyGiQGTcE-27" value="1..*" style="text;html=1;align=center;verticalAlign=middle;resizable=0;points=[];autosize=1;strokeColor=none;fillColor=none;" vertex="1" parent="1">
          <mxGeometry x="570" y="618" width="40" height="30" as="geometry" />
        </mxCell>
        <mxCell id="B8BXQAc4DHJJyGiQGTcE-29" value="1..*" style="text;html=1;align=center;verticalAlign=middle;resizable=0;points=[];autosize=1;strokeColor=none;fillColor=none;" vertex="1" parent="1">
          <mxGeometry x="290" y="628" width="40" height="30" as="geometry" />
        </mxCell>
        <mxCell id="B8BXQAc4DHJJyGiQGTcE-30" value="1" style="text;html=1;align=center;verticalAlign=middle;resizable=0;points=[];autosize=1;strokeColor=none;fillColor=none;" vertex="1" parent="1">
          <mxGeometry x="135" y="628" width="30" height="30" as="geometry" />
        </mxCell>
        <mxCell id="B8BXQAc4DHJJyGiQGTcE-31" value="tiene" style="text;html=1;align=center;verticalAlign=middle;resizable=0;points=[];autosize=1;strokeColor=none;fillColor=none;" vertex="1" parent="1">
          <mxGeometry x="175" y="688" width="50" height="30" as="geometry" />
        </mxCell>
      </root>
    </mxGraphModel>
  </diagram>
</mxfile>
